<svg width="31" height="30" viewBox="0 0 31 30" fill="none" xmlns="http://www.w3.org/2000/svg">
<path d="M23.4544 4.77273L23.4545 25.2271C23.4538 25.8296 23.2142 26.4074 22.7881 26.8334C22.362 27.2595 21.7843 27.4992 21.1817 27.4998L16.6363 27.4998C16.0338 27.4992 15.456 27.2595 15.03 26.8334C14.6039 26.4074 14.3642 25.8296 14.3636 25.2271L14.3636 4.77273C14.3642 4.17015 14.6039 3.59243 15.03 3.16635C15.456 2.74026 16.0338 2.50062 16.6363 2.50002L21.1817 2.50002C21.7843 2.50062 22.362 2.74026 22.7881 3.16635C23.2142 3.59243 23.4538 4.17015 23.4544 4.77273ZM16.6363 25.2271L21.1817 25.2271L21.1817 4.77273L16.6363 4.77273L16.6363 25.2271ZM16.6363 4.77273L16.6363 25.2271C16.6357 25.8296 16.3961 26.4073 15.97 26.8334C15.5439 27.2595 14.9662 27.4991 14.3636 27.4997L9.81823 27.4997C9.21566 27.4991 8.63794 27.2595 8.21185 26.8334C7.78577 26.4073 7.54613 25.8296 7.54553 25.227L7.54553 4.7727C7.54613 4.17013 7.78577 3.59241 8.21185 3.16632C8.63793 2.74024 9.21566 2.5006 9.81823 2.5L14.3636 2.5C14.9662 2.5006 15.5439 2.74024 15.97 3.16632C16.3961 3.59241 16.6357 4.17015 16.6363 4.77273ZM9.81823 25.227L14.3636 25.2271L14.3636 4.77273L9.81823 4.7727L9.81823 25.227ZM9.81823 4.7727L9.81823 25.227C9.81763 25.8296 9.57799 26.4073 9.15191 26.8334C8.72582 27.2595 8.1481 27.4991 7.54553 27.4997L3.00012 27.4997C2.39755 27.4991 1.81983 27.2595 1.39374 26.8334C0.967657 26.4073 0.728019 25.8296 0.727417 25.227L0.727416 4.7727C0.728018 4.17013 0.967656 3.59241 1.39374 3.16632C1.81982 2.74024 2.39755 2.5006 3.00012 2.5L7.54553 2.5C8.1481 2.5006 8.72582 2.74024 9.1519 3.16632C9.57799 3.59241 9.81763 4.17013 9.81823 4.7727ZM3.00012 25.227L7.54553 25.227L7.54553 4.7727L3.00012 4.7727L3.00012 25.227Z" fill="white"/>
<path d="M30.2726 4.77298L30.2726 25.2273C30.272 25.8299 30.0323 26.4076 29.6062 26.8337C29.1802 27.2598 28.6024 27.4994 27.9999 27.5L23.4545 27.5C22.8519 27.4994 22.2742 27.2598 21.8481 26.8337C21.422 26.4076 21.1824 25.8296 21.1817 25.2271L21.1817 4.77273C21.1823 4.17015 21.422 3.59268 21.8481 3.1666C22.2742 2.74051 22.8519 2.50088 23.4544 2.50027L27.9999 2.50027C28.6024 2.50088 29.1801 2.74051 29.6062 3.1666C30.0323 3.59268 30.272 4.1704 30.2726 4.77298ZM23.4545 25.2271L27.9999 25.2273L27.9999 4.77298L23.4544 4.77273L23.4545 25.2271Z" fill="white"/>
</svg>
