<svg width="25" height="21" viewBox="0 0 25 21" fill="none" xmlns="http://www.w3.org/2000/svg">
<path d="M18.7945 2.19232L18.7945 18.8077C18.7941 19.2972 18.5994 19.7665 18.2533 20.1126C17.9072 20.4587 17.4379 20.6534 16.9484 20.6539L13.2561 20.6539C12.7666 20.6534 12.2973 20.4587 11.9512 20.1126C11.6051 19.7665 11.4104 19.2972 11.4099 18.8077L11.4099 2.19232C11.4104 1.70284 11.6051 1.23354 11.9512 0.88743C12.2973 0.541315 12.7666 0.346652 13.2561 0.346162L16.9484 0.346162C17.4379 0.346652 17.9072 0.541314 18.2533 0.887429C18.5994 1.23354 18.7941 1.70284 18.7945 2.19232ZM13.2561 18.8077L16.9484 18.8077L16.9484 2.19232L13.2561 2.19232L13.2561 18.8077ZM13.2561 2.19232L13.2561 18.8077C13.2556 19.2972 13.0609 19.7665 12.7148 20.1126C12.3687 20.4587 11.8994 20.6533 11.4099 20.6538L7.71762 20.6538C7.22814 20.6533 6.75885 20.4587 6.41274 20.1126C6.06662 19.7665 5.87196 19.2972 5.87147 18.8077L5.87147 2.1923C5.87196 1.70282 6.06662 1.23353 6.41273 0.887411C6.75885 0.541296 7.22814 0.346634 7.71762 0.346145L11.4099 0.346145C11.8994 0.346633 12.3687 0.541295 12.7148 0.887411C13.0609 1.23353 13.2556 1.70284 13.2561 2.19232ZM7.71762 18.8077L11.4099 18.8077L11.4099 2.19232L7.71762 2.1923L7.71762 18.8077ZM7.71762 2.1923L7.71762 18.8077C7.71713 19.2972 7.52247 19.7665 7.17636 20.1126C6.83024 20.4587 6.36095 20.6533 5.87147 20.6538L2.17916 20.6538C1.68968 20.6533 1.22039 20.4587 0.874273 20.1126C0.528158 19.7665 0.333497 19.2972 0.333008 18.8077L0.333007 2.1923C0.333496 1.70282 0.528158 1.23353 0.874273 0.887411C1.22039 0.541296 1.68968 0.346634 2.17916 0.346146L5.87147 0.346145C6.36095 0.346634 6.83024 0.541296 7.17636 0.887411C7.52247 1.23353 7.71713 1.70282 7.71762 2.1923ZM2.17916 18.8077L5.87147 18.8077L5.87147 2.1923L2.17916 2.1923L2.17916 18.8077Z" fill="#CDCDCD"/>
<path d="M24.333 2.19252L24.333 18.8079C24.3325 19.2974 24.1379 19.7667 23.7917 20.1128C23.4456 20.4589 22.9763 20.6536 22.4869 20.6541L18.7945 20.6541C18.3051 20.6536 17.8358 20.4589 17.4897 20.1128C17.1435 19.7667 16.9489 19.2972 16.9484 18.8077L16.9484 2.19232C16.9489 1.70284 17.1435 1.23375 17.4897 0.887634C17.8358 0.541518 18.3051 0.346858 18.7945 0.346368L22.4869 0.346368C22.9763 0.346858 23.4456 0.541518 23.7917 0.887633C24.1379 1.23375 24.3325 1.70304 24.333 2.19252ZM18.7945 18.8077L22.4869 18.8079L22.4869 2.19252L18.7945 2.19232L18.7945 18.8077Z" fill="#CDCDCD"/>
</svg>
