<svg width="18" height="19" viewBox="0 0 18 19" fill="none" xmlns="http://www.w3.org/2000/svg">
<path d="M16.95 18.5C14.8667 18.5 12.8083 18.0458 10.775 17.1375C8.74167 16.2292 6.89167 14.9417 5.225 13.275C3.55833 11.6083 2.27083 9.75833 1.3625 7.725C0.454167 5.69167 0 3.63333 0 1.55C0 1.25 0.1 1 0.3 0.8C0.5 0.6 0.75 0.5 1.05 0.5H5.1C5.33333 0.5 5.54167 0.579167 5.725 0.7375C5.90833 0.895833 6.01667 1.08333 6.05 1.3L6.7 4.8C6.73333 5.06667 6.725 5.29167 6.675 5.475C6.625 5.65833 6.53333 5.81667 6.4 5.95L3.975 8.4C4.30833 9.01667 4.70417 9.6125 5.1625 10.1875C5.62083 10.7625 6.125 11.3167 6.675 11.85C7.19167 12.3667 7.73333 12.8458 8.3 13.2875C8.86667 13.7292 9.46667 14.1333 10.1 14.5L12.45 12.15C12.6 12 12.7958 11.8875 13.0375 11.8125C13.2792 11.7375 13.5167 11.7167 13.75 11.75L17.2 12.45C17.4333 12.5167 17.625 12.6375 17.775 12.8125C17.925 12.9875 18 13.1833 18 13.4V17.45C18 17.75 17.9 18 17.7 18.2C17.5 18.4 17.25 18.5 16.95 18.5ZM3.025 6.5L4.675 4.85L4.25 2.5H2.025C2.10833 3.18333 2.225 3.85833 2.375 4.525C2.525 5.19167 2.74167 5.85 3.025 6.5ZM11.975 15.45C12.625 15.7333 13.2875 15.9583 13.9625 16.125C14.6375 16.2917 15.3167 16.4 16 16.45V14.25L13.65 13.775L11.975 15.45Z" fill="#A8A8A8"/>
</svg>
