<svg width="22" height="25" viewBox="0 0 22 25" fill="none" xmlns="http://www.w3.org/2000/svg">
<path d="M11.0002 19.7C9.8802 19.7 8.8102 19.875 7.7902 20.225C6.7702 20.575 5.8402 21.1 5.0002 21.8V22.1H17.0002V21.8C16.1602 21.1 15.2302 20.575 14.2102 20.225C13.1902 19.875 12.1202 19.7 11.0002 19.7ZM2.6002 20.72C3.6802 19.66 4.9352 18.825 6.3652 18.215C7.7952 17.605 9.3402 17.3 11.0002 17.3C12.6602 17.3 14.2052 17.605 15.6352 18.215C17.0652 18.825 18.3202 19.66 19.4002 20.72V5.3H2.6002V20.72ZM11.0002 14.9C9.8402 14.9 8.8502 14.49 8.0302 13.67C7.2102 12.85 6.8002 11.86 6.8002 10.7C6.8002 9.54 7.2102 8.55 8.0302 7.73C8.8502 6.91 9.8402 6.5 11.0002 6.5C12.1602 6.5 13.1502 6.91 13.9702 7.73C14.7902 8.55 15.2002 9.54 15.2002 10.7C15.2002 11.86 14.7902 12.85 13.9702 13.67C13.1502 14.49 12.1602 14.9 11.0002 14.9ZM11.0002 12.5C11.5002 12.5 11.9252 12.325 12.2752 11.975C12.6252 11.625 12.8002 11.2 12.8002 10.7C12.8002 10.2 12.6252 9.775 12.2752 9.425C11.9252 9.075 11.5002 8.9 11.0002 8.9C10.5002 8.9 10.0752 9.075 9.7252 9.425C9.3752 9.775 9.2002 10.2 9.2002 10.7C9.2002 11.2 9.3752 11.625 9.7252 11.975C10.0752 12.325 10.5002 12.5 11.0002 12.5ZM2.6002 24.5C1.9402 24.5 1.3752 24.265 0.905195 23.795C0.435195 23.325 0.200195 22.76 0.200195 22.1V5.3C0.200195 4.64 0.435195 4.075 0.905195 3.605C1.3752 3.135 1.9402 2.9 2.6002 2.9H3.8002V1.7C3.8002 1.03726 4.33745 0.5 5.0002 0.5C5.66294 0.5 6.2002 1.03726 6.2002 1.7V2.9H15.8002V1.7C15.8002 1.03726 16.3375 0.5 17.0002 0.5C17.6629 0.5 18.2002 1.03726 18.2002 1.7V2.9H19.4002C20.0602 2.9 20.6252 3.135 21.0952 3.605C21.5652 4.075 21.8002 4.64 21.8002 5.3V22.1C21.8002 22.76 21.5652 23.325 21.0952 23.795C20.6252 24.265 20.0602 24.5 19.4002 24.5H2.6002Z" fill="#CDCDCD"/>
</svg>
