<svg width="32" height="33" viewBox="0 0 32 33" fill="none" xmlns="http://www.w3.org/2000/svg">
<mask id="mask0_70853_4962" style="mask-type:alpha" maskUnits="userSpaceOnUse" x="0" y="0" width="32" height="33">
<rect y="0.96582" width="32" height="32" fill="#D9D9D9"/>
</mask>
<g mask="url(#mask0_70853_4962)">
<path d="M15.94 24.1658C16.36 24.1658 16.715 24.0208 17.005 23.7308C17.295 23.4408 17.44 23.0858 17.44 22.6658C17.44 22.2458 17.295 21.8908 17.005 21.6008C16.715 21.3108 16.36 21.1658 15.94 21.1658C15.52 21.1658 15.165 21.3108 14.875 21.6008C14.585 21.8908 14.44 22.2458 14.44 22.6658C14.44 23.0858 14.585 23.4408 14.875 23.7308C15.165 24.0208 15.52 24.1658 15.94 24.1658ZM16 28.9658C14.34 28.9658 12.78 28.6508 11.32 28.0208C9.86 27.3908 8.59 26.5358 7.51 25.4558C6.43 24.3758 5.575 23.1058 4.945 21.6458C4.315 20.1858 4 18.6258 4 16.9658C4 15.3058 4.315 13.7458 4.945 12.2858C5.575 10.8258 6.43 9.55582 7.51 8.47582C8.59 7.39582 9.86 6.54082 11.32 5.91082C12.78 5.28082 14.34 4.96582 16 4.96582C17.66 4.96582 19.22 5.28082 20.68 5.91082C22.14 6.54082 23.41 7.39582 24.49 8.47582C25.57 9.55582 26.425 10.8258 27.055 12.2858C27.685 13.7458 28 15.3058 28 16.9658C28 18.6258 27.685 20.1858 27.055 21.6458C26.425 23.1058 25.57 24.3758 24.49 25.4558C23.41 26.5358 22.14 27.3908 20.68 28.0208C19.22 28.6508 17.66 28.9658 16 28.9658ZM16 26.5658C18.68 26.5658 20.95 25.6358 22.81 23.7758C24.67 21.9158 25.6 19.6458 25.6 16.9658C25.6 14.2858 24.67 12.0158 22.81 10.1558C20.95 8.29582 18.68 7.36582 16 7.36582C13.32 7.36582 11.05 8.29582 9.19 10.1558C7.33 12.0158 6.4 14.2858 6.4 16.9658C6.4 19.6458 7.33 21.9158 9.19 23.7758C11.05 25.6358 13.32 26.5658 16 26.5658ZM16.12 11.8058C16.62 11.8058 17.055 11.9658 17.425 12.2858C17.795 12.6058 17.98 13.0058 17.98 13.4858C17.98 13.9258 17.845 14.3158 17.575 14.6558C17.305 14.9958 17 15.3158 16.66 15.6158C16.2 16.0158 15.795 16.4558 15.445 16.9358C15.095 17.4158 14.92 17.9558 14.92 18.5558C14.92 18.8358 15.025 19.0708 15.235 19.2608C15.445 19.4508 15.69 19.5458 15.97 19.5458C16.27 19.5458 16.525 19.4458 16.735 19.2458C16.945 19.0458 17.08 18.7958 17.14 18.4958C17.22 18.0758 17.4 17.7008 17.68 17.3708C17.96 17.0408 18.26 16.7258 18.58 16.4258C19.04 15.9858 19.435 15.5058 19.765 14.9858C20.095 14.4658 20.26 13.8858 20.26 13.2458C20.26 12.2258 19.845 11.3908 19.015 10.7408C18.185 10.0908 17.22 9.76582 16.12 9.76582C15.36 9.76582 14.635 9.92582 13.945 10.2458C13.255 10.5658 12.73 11.0558 12.37 11.7158C12.23 11.9558 12.185 12.2108 12.235 12.4808C12.285 12.7508 12.42 12.9558 12.64 13.0958C12.92 13.2558 13.21 13.3058 13.51 13.2458C13.81 13.1858 14.06 13.0158 14.26 12.7358C14.48 12.4358 14.755 12.2058 15.085 12.0458C15.415 11.8858 15.76 11.8058 16.12 11.8058Z" fill="#A8A8A8"/>
</g>
</svg>
