<svg width="32" height="40" viewBox="0 0 32 40" fill="none" xmlns="http://www.w3.org/2000/svg">
<path d="M22.927 0.492188H15.8389V8.64696H22.927V0.492188Z" fill="#2A3647"/>
<path d="M15.8392 15.2793H22.9273V26.7803C22.9597 29.5478 22.1721 32.2624 20.6646 34.5791C19.1761 36.83 16.3027 39.5081 10.9866 39.5081C5.19613 39.5081 1.8211 36.7698 0 35.2692L4.47096 29.7542C6.24844 31.2055 7.96049 32.3994 11.0138 32.3994C13.3256 32.3994 14.2471 31.4574 14.7869 30.6359C15.5207 29.4949 15.9003 28.1604 15.8774 26.8022L15.8392 15.2793Z" fill="#2A3647"/>
<path d="M12.2239 10.1311H5.13574V17.2508H12.2239V10.1311Z" fill="#29ABE2"/>
<path d="M26.6409 36.167C26.6409 37.684 25.8721 38.5001 24.798 38.5001C23.7239 38.5001 23.0205 37.5307 23.0205 36.2437C23.0205 34.9567 23.7457 33.938 24.858 33.938C25.9703 33.938 26.6409 34.9402 26.6409 36.167ZM23.8438 36.2272C23.8438 37.1418 24.2091 37.8155 24.8362 37.8155C25.4632 37.8155 25.8176 37.1035 25.8176 36.1725C25.8176 35.3564 25.4904 34.5897 24.8362 34.5897C24.1819 34.5897 23.8438 35.3291 23.8438 36.2272Z" fill="#2A3647"/>
<path d="M28.0478 34.0042V38.4293H27.2627V34.0042H28.0478Z" fill="#2A3647"/>
<path d="M28.8975 38.4293V34.0042H29.7698L30.7077 35.8279C30.9491 36.3048 31.1639 36.7948 31.351 37.2956C31.302 36.748 31.2802 36.1181 31.2802 35.4171V34.0042H31.9999V38.4293H31.1875L30.2387 36.5672C29.9876 36.0781 29.7637 35.5753 29.5681 35.0611C29.5681 35.6088 29.6063 36.2277 29.6063 36.9889V38.4238L28.8975 38.4293Z" fill="#2A3647"/>
</svg>
