<svg width="16" height="22" viewBox="0 0 16 22" fill="none" xmlns="http://www.w3.org/2000/svg">
<path d="M2 21.5C1.45 21.5 0.979167 21.3042 0.5875 20.9125C0.195833 20.5208 0 20.05 0 19.5V9.5C0 8.95 0.195833 8.47917 0.5875 8.0875C0.979167 7.69583 1.45 7.5 2 7.5H3V5.5C3 4.11667 3.4875 2.9375 4.4625 1.9625C5.4375 0.9875 6.61667 0.5 8 0.5C9.38333 0.5 10.5625 0.9875 11.5375 1.9625C12.5125 2.9375 13 4.11667 13 5.5V7.5H14C14.55 7.5 15.0208 7.69583 15.4125 8.0875C15.8042 8.47917 16 8.95 16 9.5V19.5C16 20.05 15.8042 20.5208 15.4125 20.9125C15.0208 21.3042 14.55 21.5 14 21.5H2ZM2 19.5H14V9.5H2V19.5ZM8 16.5C8.55 16.5 9.02083 16.3042 9.4125 15.9125C9.80417 15.5208 10 15.05 10 14.5C10 13.95 9.80417 13.4792 9.4125 13.0875C9.02083 12.6958 8.55 12.5 8 12.5C7.45 12.5 6.97917 12.6958 6.5875 13.0875C6.19583 13.4792 6 13.95 6 14.5C6 15.05 6.19583 15.5208 6.5875 15.9125C6.97917 16.3042 7.45 16.5 8 16.5ZM5 7.5H11V5.5C11 4.66667 10.7083 3.95833 10.125 3.375C9.54167 2.79167 8.83333 2.5 8 2.5C7.16667 2.5 6.45833 2.79167 5.875 3.375C5.29167 3.95833 5 4.66667 5 5.5V7.5Z" fill="#A8A8A8"/>
</svg>
