<svg width="22" height="23" viewBox="0 0 22 23" fill="none" xmlns="http://www.w3.org/2000/svg">
<path d="M20 0.5H2C0.895431 0.5 0 1.39648 0 2.50105C0 2.52939 0 2.54928 0 2.55917V20.5592C0 21.6311 0.869976 22.5 1.94187 22.5C1.97009 22.5 1.98998 22.5 1.99999 22.5H20C20.01 22.5 20.0299 22.5 20.0581 22.5C21.13 22.5 22 21.6311 22 20.5592V2.55915C22 2.54925 22 2.52937 22 2.50104C22 1.39648 21.1046 0.5 20 0.5ZM13 20.5592H2V12.5591H13V20.5592ZM13 10.5591H2V2.55917L13 2.55915V10.5591ZM20 20.5592H15V2.55917H20V20.5592Z" fill="#CDCDCD"/>
</svg>
